<?xml version="1.0" encoding="iso-8859-1"?>
<!-- Generator: Adobe Illustrator 19.0.0, SVG Export Plug-In . SVG Version: 6.00 Build 0)  -->
<svg version="1.1" id="Capa_1" xmlns="http://www.w3.org/2000/svg" xmlns:xlink="http://www.w3.org/1999/xlink" x="0px" y="0px"
	 viewBox="0 0 512 512" style="enable-background:new 0 0 512 512;" xml:space="preserve">
<g>
	<g>
		<path d="M373.333,0H138.667C97.493,0,64,33.493,64,74.667v362.667C64,478.507,97.493,512,138.667,512h234.667
			C414.507,512,448,478.507,448,437.333V74.667C448,33.493,414.507,0,373.333,0z M208.576,446.208
			c-1.813,1.216-3.861,1.792-5.909,1.792c-3.456,0-6.827-1.664-8.896-4.757l-12.437-18.688l-12.459,18.688
			c-2.048,3.093-5.44,4.757-8.875,4.757c-2.027,0-4.075-0.576-5.909-1.792c-4.907-3.264-6.229-9.899-2.965-14.784l17.387-26.091
			l-17.387-26.091c-3.264-4.885-1.941-11.52,2.965-14.784c4.907-3.264,11.52-1.941,14.784,2.965l12.459,18.688l12.459-18.688
			c3.264-4.885,9.856-6.229,14.784-2.965c4.907,3.264,6.229,9.899,2.965,14.784l-17.387,26.091l17.387,26.091
			C214.805,436.309,213.483,442.944,208.576,446.208z M224,298.667h-32v32c0,5.888-4.779,10.667-10.667,10.667
			s-10.667-4.779-10.667-10.667v-32h-32c-5.888,0-10.667-4.779-10.667-10.667s4.779-10.667,10.667-10.667h32v-32
			c0-5.888,4.779-10.667,10.667-10.667S192,239.445,192,245.333v32h32c5.888,0,10.667,4.779,10.667,10.667
			S229.888,298.667,224,298.667z M373.333,448H288c-5.888,0-10.667-4.779-10.667-10.667c0-5.888,4.779-10.667,10.667-10.667h85.333
			c5.888,0,10.667,4.779,10.667,10.667C384,443.221,379.221,448,373.333,448z M373.333,405.333H288
			c-5.888,0-10.667-4.779-10.667-10.667S282.112,384,288,384h85.333c5.888,0,10.667,4.779,10.667,10.667
			S379.221,405.333,373.333,405.333z M373.333,298.667H288c-5.888,0-10.667-4.779-10.667-10.667s4.779-10.667,10.667-10.667h85.333
			c5.888,0,10.667,4.779,10.667,10.667S379.221,298.667,373.333,298.667z M405.333,181.333c0,17.643-14.357,32-32,32H138.667
			c-17.643,0-32-14.357-32-32V74.667c0-17.643,14.357-32,32-32h234.667c17.643,0,32,14.357,32,32V181.333z"/>
	</g>
</g>
<g>
</g>
<g>
</g>
<g>
</g>
<g>
</g>
<g>
</g>
<g>
</g>
<g>
</g>
<g>
</g>
<g>
</g>
<g>
</g>
<g>
</g>
<g>
</g>
<g>
</g>
<g>
</g>
<g>
</g>
</svg>
