<?xml version="1.0" encoding="iso-8859-1"?>
<!-- Generator: Adobe Illustrator 19.0.0, SVG Export Plug-In . SVG Version: 6.00 Build 0)  -->
<svg version="1.1" id="Layer_1" xmlns="http://www.w3.org/2000/svg" xmlns:xlink="http://www.w3.org/1999/xlink" x="0px" y="0px"
	 viewBox="0 0 512 512" style="enable-background:new 0 0 512 512;" xml:space="preserve">
<g>
	<g>
		<path d="M0.139,399.417v55.515l511.37-0.397v-55.118H0.139z M495.848,438.885L15.8,439.257v-24.18h480.048V438.885z"/>
	</g>
</g>
<g>
	<g>
		<polygon points="470.879,463.416 470.879,487.43 461.482,487.43 461.482,463.416 48.028,463.416 48.028,487.43 40.719,487.43 
			40.719,463.416 0,463.416 0,479.077 25.058,479.077 25.058,503.091 63.689,503.091 63.689,479.077 445.821,479.077 
			445.821,503.091 486.54,503.091 486.54,479.077 511.598,479.077 511.598,463.416 		"/>
	</g>
</g>
<g>
	<g>
		<path d="M313.223,375.713V176.295H41.763v199.419H25.058v15.661h303.827v-15.661H313.223z M145.127,191.956h64.733v30.428
			l-32.366-6.417l-32.366,6.417V191.956z M297.562,375.713H57.424V191.956h72.041v49.498l48.028-9.522l48.028,9.522v-49.498h72.041
			V375.713z"/>
	</g>
</g>
<g>
	<g>
		<polygon points="97.723,324.447 76.247,345.924 87.32,356.997 97.723,346.595 108.125,356.997 119.199,345.924 		"/>
	</g>
</g>
<g>
	<g>
		<polygon points="145.54,324.447 124.064,345.924 135.138,356.997 145.54,346.595 155.941,356.997 167.016,345.924 		"/>
	</g>
</g>
<g>
	<g>
		<rect x="194.198" y="295.317" width="79.35" height="15.661"/>
	</g>
</g>
<g>
	<g>
		<rect x="194.198" y="319.331" width="45.939" height="15.661"/>
	</g>
</g>
<g>
	<g>
		<rect x="194.198" y="343.345" width="22.97" height="15.661"/>
	</g>
</g>
<g>
	<g>
		<rect x="225.521" y="343.345" width="48.028" height="15.661"/>
	</g>
</g>
<g>
	<g>
		<path d="M512,104.405c0-52.657-42.839-95.496-95.495-95.496s-95.495,42.839-95.495,95.496c0,50.225,38.975,91.518,88.269,95.223
			v9.032h-32.366v22.97h15.661v-7.309h48.028v7.309h15.661v-22.97H424.94v-9.137C473.659,195.238,512,154.219,512,104.405z
			 M343.484,136.619c-4.367-9.86-6.814-20.754-6.814-32.214c0-44.02,35.814-79.834,79.834-79.834s79.834,35.814,79.834,79.834
			c0,11.46-2.446,22.354-6.814,32.214h-25.343v-16.136h-95.357v16.136H343.484z M448.521,136.145v8.247h-64.034v-8.247H448.521z
			 M416.504,184.239c-26.074,0-49.265-12.566-63.843-31.958h16.164v7.772h95.357v-7.772h16.165
			C465.769,171.672,442.578,184.239,416.504,184.239z"/>
	</g>
</g>
<g>
	<g>
		<path d="M466.814,54.039c-13.487-13.446-31.254-20.851-50.403-20.851s-37.216,7.406-50.703,20.851
			c-13.527,13.484-21.162,31.503-21.162,50.736v7.831h56.38v-7.831c0-9.016,6.647-16.078,15.661-16.078s15.661,7.063,15.661,16.078
			v7.831h55.336v-7.831C487.584,85.542,480.341,67.524,466.814,54.039z M447.308,96.944c-2.741-11.19-11.271-19.856-22.368-22.807
			V56.226h-15.661v17.63c-11.683,2.627-20.74,11.496-23.578,23.089h-24.576c3.82-27.144,27.2-48.095,55.38-48.095
			c28.18,0,51.559,20.952,55.379,48.094H447.308z"/>
	</g>
</g>
<g>
	<g>
		<rect x="408.234" y="352.742" width="16.705" height="15.661"/>
	</g>
</g>
<g>
	<g>
		<rect x="408.234" y="327.684" width="16.705" height="15.661"/>
	</g>
</g>
<g>
	<g>
		<rect x="408.234" y="304.714" width="16.705" height="15.661"/>
	</g>
</g>
<g>
	<g>
		<path d="M447.909,375.713V254.6h8.353v-15.661h-79.35V254.6h7.309v121.113h-15.661v15.661h96.055v-15.661H447.909z
			 M432.248,375.713h-32.366V254.6h32.366V375.713z"/>
	</g>
</g>
<g>
</g>
<g>
</g>
<g>
</g>
<g>
</g>
<g>
</g>
<g>
</g>
<g>
</g>
<g>
</g>
<g>
</g>
<g>
</g>
<g>
</g>
<g>
</g>
<g>
</g>
<g>
</g>
<g>
</g>
</svg>
